<?xml version="1.0" standalone="no"?>
<!DOCTYPE svg PUBLIC "-//W3C//DTD SVG 20010904//EN"
 "http://www.w3.org/TR/2001/REC-SVG-20010904/DTD/svg10.dtd">
<svg version="1.0" xmlns="http://www.w3.org/2000/svg"
 width="400.000000pt" height="400.000000pt" viewBox="0 0 400.000000 400.000000"
 preserveAspectRatio="xMidYMid meet">
<metadata>
Created by potrace 1.11, written by Peter Selinger 2001-2013
</metadata>
<g transform="translate(0.000000,400.000000) scale(0.100000,-0.100000)"
fill="#000000" stroke="none">
<path d="M1569 2831 l-24 -19 0 -650 c0 -625 1 -651 19 -671 25 -28 77 -28
102 0 18 20 19 40 19 320 l0 299 63 1 c77 1 95 1 391 0 l238 -1 0 -302 0 -301
22 -19 c32 -25 75 -23 98 5 17 22 18 58 17 663 -1 351 -2 645 -3 651 0 7 -12
20 -26 29 -31 20 -81 11 -97 -19 -8 -15 -12 -110 -12 -297 l-1 -275 -345 -3
-345 -2 1 272 c0 204 -3 280 -12 299 -21 43 -66 52 -105 20z"/>
<path d="M2887 2794 c-89 -64 -105 -85 -81 -108 17 -18 39 -10 103 38 19 14
37 24 39 21 2 -2 4 -129 3 -281 0 -190 3 -281 10 -291 18 -21 48 -16 54 10 3
12 4 166 3 342 l-3 320 -25 2 c-17 2 -51 -16 -103 -53z"/>
<path d="M3411 2763 c-297 -423 -289 -409 -272 -426 8 -8 56 -13 134 -14 67
-1 136 -2 154 -2 31 -1 31 -2 31 -48 0 -97 1 -101 24 -109 32 -10 46 17 44 87
-3 64 1 71 46 73 62 3 55 66 -7 66 -19 0 -36 5 -36 10 -1 6 -2 103 -3 218 -1
114 -5 213 -9 220 -19 29 -46 10 -106 -75z m46 -213 l-1 -160 -114 0 c-90 0
-112 3 -105 13 5 6 56 78 112 160 57 81 104 147 106 147 1 0 2 -72 2 -160z"/>
<path d="M524 2832 c-18 -2 -40 -12 -49 -22 -17 -18 -18 -65 -18 -660 0 -636
0 -641 20 -662 27 -27 69 -26 96 1 21 21 22 29 22 289 l0 267 199 2 c168 2
211 5 266 22 153 47 238 167 246 347 9 225 -108 385 -300 409 -54 7 -429 12
-482 7z m507 -154 c94 -43 140 -131 134 -257 -5 -115 -79 -215 -175 -237 -33
-8 -378 -12 -388 -4 -4 3 -7 123 -7 267 l0 263 190 -3 c181 -2 193 -4 246 -29z"/>
<path d="M3186 1707 c-27 -31 -158 -173 -277 -301 -31 -34 -69 -74 -83 -91
l-28 -30 -1220 0 -1220 0 -19 -24 c-25 -30 -24 -62 1 -89 l21 -22 1632 0
c1309 0 1637 3 1651 13 9 7 21 29 25 48 9 40 19 26 -173 233 -55 60 -112 120
-125 135 -51 56 -129 137 -142 148 -13 10 -20 6 -43 -20z"/>
</g>
</svg>
